Coordinates
version=1
nRows=20
nColumns=33
inDegrees=yes

Units are S.I. units (second, meters, Newtons, ...)
Angles are in degrees.

endheader
time	ground_thorax_rot_x	ground_thorax_rot_y	ground_thorax_rot_z	ground_thorax_tx	ground_thorax_ty	ground_thorax_tz	clav_prot_r	clav_elev_r	scapula_abduction_r	scapula_elevation_r	scapula_upward_rot_r	scapula_winging_r	shoulder_elv_r	plane_of_elev_r	axial_rot_r	elbow_flexion_r	pro_sup_r	wrist_flex_r	wrist_dev_r	clav_prot_l	clav_elev_l	scapula_abduction_l	scapula_elevation_l	scapula_upward_rot_l	scapula_winging_l	shoulder_elv_l	plane_of_elev_l	axial_rot_l	elbow_flexion_l	pro_sup_l	wrist_flex_l	wrist_dev_l	
6.4700	38.322452	12.959163	15.655374	-115.164646	785.653411	5.751928	17.289307	38.918319	41.515148	44.966492	-39.040191	-2599.542376	-3710.569939	142.934172	180.000000	1450.979501	51.938683	22.770400	11.350305	4.645684	-45.000000	-39.622357	45.000000	-33.416649	808.995532	-2258.543532	137.590574	158.729485	369.640708	25.260634	6.858568	-19.679490	
6.4800	38.366530	13.018817	15.623609	-117.652969	786.863414	5.565901	17.211847	38.879986	41.471130	44.994161	-39.213754	-2599.736822	-3710.340001	142.902372	180.000000	1451.077173	51.893446	22.775830	11.282520	4.678510	-45.000000	-39.556862	45.000000	-33.496097	809.257755	-2258.308134	137.577167	158.731299	369.729474	25.241572	6.798200	-19.720060	
6.4900	38.400056	13.076920	15.593562	-120.199796	788.104848	5.384167	17.142844	38.818889	41.428001	45.000000	-39.405798	-2599.943189	-3710.098079	142.862918	180.000000	1451.175774	51.825309	22.771306	11.210168	4.737879	-45.000000	-39.505408	45.000000	-33.572246	809.538247	-2258.067450	137.559071	158.727280	369.810238	25.168197	6.752767	-19.755319	
6.5000	38.429602	13.128357	15.551991	-122.801344	789.376149	5.204503	17.081058	38.759483	41.377769	45.000000	-39.609451	-2600.145747	-3709.842712	142.819481	180.000000	1451.278970	51.735800	22.756734	11.132104	4.811339	-45.000000	-39.474238	45.000000	-33.637961	809.827716	-2257.820119	137.540597	158.725245	369.892205	25.042799	6.721627	-19.788356	
6.5100	38.457639	13.171382	15.502219	-125.451607	790.675382	5.025698	17.021478	38.700230	41.322839	45.000000	-39.827909	-2600.340883	-3709.576512	142.771180	180.000000	1451.387834	51.627940	22.735166	11.049640	4.890258	-45.000000	-39.454524	45.000000	-33.694821	810.120679	-2257.573009	137.524335	158.725186	369.967033	24.867908	6.701085	-19.817757	
6.5200	38.492398	13.190825	15.421946	-128.140135	791.999587	4.848737	16.950694	38.655090	41.267984	45.000000	-40.015554	-2600.532211	-3709.312918	142.731709	180.000000	1451.499522	51.511462	22.713641	10.967108	4.953635	-45.000000	-39.449770	45.000000	-33.707260	810.410039	-2257.334628	137.516572	158.735751	370.036121	24.647576	6.684778	-19.844319	
6.5300	38.531519	13.199218	15.329635	-130.853957	793.345386	4.676347	16.872727	38.607306	41.216729	45.000000	-40.191165	-2600.725143	-3709.054525	142.696114	180.000000	1451.609358	51.392022	22.693570	10.884092	5.012986	-45.000000	-39.446887	45.000000	-33.703013	810.698556	-2257.102312	137.512097	158.745185	370.095955	24.385122	6.671574	-19.868116	
6.5400	38.577221	13.201698	15.227139	-133.578015	794.709319	4.512651	16.791616	38.557319	41.167858	45.000000	-40.353453	-2600.924282	-3708.803158	142.662974	180.000000	1451.714285	51.276594	22.674776	10.799312	5.070698	-45.000000	-39.443691	45.000000	-33.687998	810.987472	-2256.876717	137.508194	158.752873	370.152114	24.080383	6.662599	-19.890991	
6.5500	38.625563	13.213749	15.136134	-136.299431	796.089034	4.361210	16.712621	38.486024	41.127132	45.000000	-40.522310	-2601.134955	-3708.564683	142.628789	180.000000	1451.805686	51.167701	22.657811	10.712743	5.140713	-45.000000	-39.427295	45.000000	-33.699315	811.278750	-2256.654123	137.498123	158.748199	370.199209	23.731188	6.658923	-19.912474	
6.5600	38.679079	13.231270	15.047476	-139.009253	797.483833	4.223971	16.635848	38.410275	41.089843	45.000000	-40.680232	-2601.354468	-3708.339563	142.597380	180.000000	1451.882661	51.069678	22.643638	10.625762	5.215292	-45.000000	-39.403128	45.000000	-33.727565	811.567541	-2256.434601	137.485139	158.737179	370.240767	23.336383	6.661423	-19.933693	
6.5700	38.737483	13.245703	14.952076	-141.705975	798.895392	4.099616	16.553108	38.339977	41.058216	45.000000	-40.801223	-2601.578335	-3708.137930	142.578595	180.000000	1451.940296	50.984757	22.637243	10.542959	5.284883	-45.000000	-39.373428	45.000000	-33.765372	811.845576	-2256.215939	137.472955	158.722849	370.272702	22.899721	6.665328	-19.954411	
6.5800	38.796460	13.261019	14.855681	-144.393062	800.326831	3.984655	16.475792	38.276276	41.022417	45.000000	-40.924185	-2601.800700	-3707.938375	142.557099	180.000000	1451.991014	50.912489	22.630821	10.456754	5.358072	-45.000000	-39.346619	45.000000	-33.815032	812.120349	-2255.994996	137.460961	158.698015	370.304458	22.418660	6.676624	-19.976475	
6.5900	38.857666	13.259106	14.742063	-147.076502	801.781535	3.874689	16.391876	38.222937	40.988380	45.000000	-41.021775	-2602.018689	-3707.750876	142.542680	180.000000	1452.037837	50.853150	22.628948	10.370245	5.421268	-45.000000	-39.330100	45.000000	-33.843890	812.389099	-2255.779010	137.456693	158.669291	370.330923	21.892808	6.691862	-19.998582	
6.6000	38.919546	13.233122	14.602747	-149.760476	803.261646	3.766504	16.304655	38.195898	40.945295	45.000000	-41.097541	-2602.222978	-3707.561901	142.532833	180.000000	1452.094158	50.806177	22.629724	10.281904	5.469286	-45.000000	-39.336373	45.000000	-33.835453	812.651242	-2255.565399	137.467103	158.639288	370.361435	21.326162	6.712769	-20.022540	
6.6100	38.984861	13.172617	14.430243	-152.446575	804.767686	3.658592	16.204021	38.191950	40.899121	45.000000	-41.129456	-2602.415499	-3707.381102	142.533997	180.000000	1452.157108	50.771912	22.637670	10.195409	5.494055	-45.000000	-39.360563	45.000000	-33.773784	812.903859	-2255.361515	137.493048	158.611560	370.388949	20.726335	6.733812	-20.046773	
6.6200	39.045868	13.108705	14.264611	-155.132705	806.298228	3.551566	16.111683	38.185489	40.845000	45.000000	-41.192818	-2602.598265	-3707.186051	142.525850	180.000000	1452.231258	50.744938	22.641494	10.100299	5.526662	-45.000000	-39.388418	45.000000	-33.714543	813.159695	-2255.160467	137.522198	158.568241	370.418574	20.092997	6.762999	-20.072487	
6.6300	39.102221	13.050546	14.118056	-157.814676	807.850490	3.447328	16.030028	38.157457	40.790389	45.000000	-41.310204	-2602.777949	-3706.975591	142.501899	180.000000	1452.308147	50.722961	22.637747	9.994934	5.576652	-45.000000	-39.409451	45.000000	-33.677938	813.421938	-2254.963687	137.545022	158.505165	370.443829	19.419260	6.804107	-20.097629	
6.6400	39.153806	12.999324	13.989069	-160.487674	809.420909	3.348109	15.957306	38.111192	40.736929	45.000000	-41.472830	-2602.955235	-3706.754654	142.467336	180.000000	1452.386052	50.705494	22.625405	9.878744	5.639426	-45.000000	-39.422871	45.000000	-33.666993	813.688367	-2254.769770	137.561507	158.423533	370.463414	18.699778	6.858164	-20.121125	
6.6500	39.199034	12.962580	13.890850	-163.148002	811.005887	3.255480	15.892937	38.025758	40.692655	45.000000	-41.696750	-2603.138312	-3706.528291	142.417040	180.000000	1452.458773	50.692219	22.603345	9.749442	5.725225	-45.000000	-39.416786	45.000000	-33.702928	813.962893	-2254.578826	137.563086	158.312218	370.469989	17.925106	6.925455	-20.140502	
6.6600	39.236312	12.943346	13.824404	-165.792684	812.601817	3.170202	15.836141	37.905816	40.658208	45.000000	-41.974140	-2603.324749	-3706.301549	142.358762	180.000000	1452.526490	50.683262	22.573027	9.607895	5.832002	-45.000000	-39.392688	45.000000	-33.789540	814.242500	-2254.388194	137.553626	158.173485	370.463534	17.090709	7.006041	-20.155551	
